<?xml version="1.0" encoding="UTF-8"?>
<svg xmlns="http://www.w3.org/2000/svg" xmlns:xlink="http://www.w3.org/1999/xlink" width="24" height="24">
<symbol id="chevron-double-left" viewBox="0 0 24 24" fill="currentColor">
  <path fill-rule="evenodd" d="M13.28 3.97a.75.75 0 010 1.06L6.31 12l6.97 6.97a.75.75 0 11-1.06 1.06l-7.5-7.5a.75.75 0 010-1.06l7.5-7.5a.75.75 0 011.06 0zm6 0a.75.75 0 010 1.06L12.31 12l6.97 6.97a.75.75 0 11-1.06 1.06l-7.5-7.5a.75.75 0 010-1.06l7.5-7.5a.75.75 0 011.06 0z" clip-rule="evenodd" />
</symbol>

<symbol id="chevron-double-right" viewBox="0 0 24 24" fill="currentColor">
  <path fill-rule="evenodd" d="M4.72 3.97a.75.75 0 011.06 0l7.5 7.5a.75.75 0 010 1.06l-7.5 7.5a.75.75 0 01-1.06-1.06L11.69 12 4.72 5.03a.75.75 0 010-1.06zm6 0a.75.75 0 011.06 0l7.5 7.5a.75.75 0 010 1.06l-7.5 7.5a.75.75 0 11-1.06-1.06L17.69 12l-6.97-6.97a.75.75 0 010-1.06z" clip-rule="evenodd" />
</symbol>

<symbol id="chevron-left" viewBox="0 0 24 24" fill="currentColor" >
  <path fill-rule="evenodd" d="M7.72 12.53a.75.75 0 010-1.06l7.5-7.5a.75.75 0 111.06 1.06L9.31 12l6.97 6.97a.75.75 0 11-1.06 1.06l-7.5-7.5z" clip-rule="evenodd" />
</symbol>

<symbol id="chevron-right" viewBox="0 0 24 24" fill="currentColor" >
  <path fill-rule="evenodd" d="M16.28 11.47a.75.75 0 010 1.06l-7.5 7.5a.75.75 0 01-1.06-1.06L14.69 12 7.72 5.03a.75.75 0 011.06-1.06l7.5 7.5z" clip-rule="evenodd" />
</symbol>


</svg>
